PathFileType	4	(X/Y/Z)	/Users/itak/Documents/Research/Walk-IL/dataset/trc/00176_00008.trc
DataRate	CameraRate	NumFrames	NumMarkers	Units	OrigDataRate	OrigDataStartFrame	OrigNumFrames
100.000000	100.000000	4	53	mm	100.000000	232	619
Frame#	Time	RPSI			LPSI			L3			STRN			T10			C7			CLAV			RBAK			LBAK			LSHO			LUPA			LAEL			LAOL			LWTS			LWPS			LFRA			LIFD			LHPS			LHTS			RSHO			RUPA			RAEL			RAOL			RWTS			RWPS			RFRA			RIFD			RHTS			RHPS			RBHD			LFHD			RFHD			LBHD			LHIP			RHIP			RASI			LASI			LKNE			LTHI			LANK			LTIP			LTOE			LMT1			LMT5			LHEE			RKNE			RTHI			RANK			RTIP			RTOE			RMT1			RMT5			RHEE			
		X1	Y1	Z1	X2	Y2	Z2	X3	Y3	Z3	X4	Y4	Z4	X5	Y5	Z5	X6	Y6	Z6	X7	Y7	Z7	X8	Y8	Z8	X9	Y9	Z9	X10	Y10	Z10	X11	Y11	Z11	X12	Y12	Z12	X13	Y13	Z13	X14	Y14	Z14	X15	Y15	Z15	X16	Y16	Z16	X17	Y17	Z17	X18	Y18	Z18	X19	Y19	Z19	X20	Y20	Z20	X21	Y21	Z21	X22	Y22	Z22	X23	Y23	Z23	X24	Y24	Z24	X25	Y25	Z25	X26	Y26	Z26	X27	Y27	Z27	X28	Y28	Z28	X29	Y29	Z29	X30	Y30	Z30	X31	Y31	Z31	X32	Y32	Z32	X33	Y33	Z33	X34	Y34	Z34	X35	Y35	Z35	X36	Y36	Z36	X37	Y37	Z37	X38	Y38	Z38	X39	Y39	Z39	X40	Y40	Z40	X41	Y41	Z41	X42	Y42	Z42	X43	Y43	Z43	X44	Y44	Z44	X45	Y45	Z45	X46	Y46	Z46	X47	Y47	Z47	X48	Y48	Z48	X49	Y49	Z49	X50	Y50	Z50	X51	Y51	Z51	X52	Y52	Z52	X53	Y53	Z53	

233	2.32	616.1903076171875	1048.1875	333.3434143066406	605.431640625	1052.094482421875	210.9007568359375	615.5487670898438	1087.957397460938	273.5663757324219	885.6856689453125	1281.93115234375	245.0629577636719	592.4103393554688	1246.07568359375	272.1045227050781	668.3201293945312	1512.72900390625	257.3840637207031	862.2503662109375	1396.607788085938	240.8729858398438	604.3184204101562	1338.55517578125	370.561767578125	651.3746948242188	1490.441650390625	157.8227386474609	719.9263916015625	1475.955932617188	71.98526000976562	673.7263793945312	1345.3203125	3.726263761520386	677.2310180664062	1128.504760742188	-18.14210510253906	646.1153564453125	1110.80224609375	62.49095153808594	806.4989013671875	904.962158203125	-10.81192588806152	720.3931884765625	877.3638916015625	-35.85323715209961	693.9567260742188	1018.069091796875	-35.63119125366211	841.3598022460938	721.1184692382812	1.3185715675354	748.0899047851562	809.6549682617188	-37.06247329711914	819.5675659179688	827.9121704101562	-34.27461624145508	749.6015625	1482.53564453125	432.0493469238281	734.7103881835938	1415.2763671875	502.205810546875	730.3968505859375	1125.467895507812	558.4395751953125	714.2020874023438	1117.267456054688	463.5649108886719	887.39453125	914.5467529296875	515.2089233398438	820.3165283203125	886.914306640625	566.5338745117188	763.200927734375	1054	570.3998413085938	922.2353515625	733.6370849609375	479.31787109375	925.46533203125	825.11669921875	517.2437744140625	857.698974609375	808.424560546875	556.7715454101562	716.6552734375	1644.32470703125	340.0054016113281	858.6658325195312	1739.971435546875	205.0653381347656	870.5737915039062	1725.235595703125	333.0996398925781	693.2490234375	1665.954956054688	205.7666778564453	691.2630004882812	981.5665893554688	81.51515960693359	783.5391235351562	1001.594848632812	439.4191284179688	855.357666015625	1022.281433105469	373.6010131835938	820.7921142578125	1015.533203125	116.8901901245117	691.8450927734375	481.3748168945312	91.82151794433594	704.630859375	626.08837890625	73.20767974853516	426.5436706542969	76.64906311035156	95.78559112548828	563.9827880859375	282.6100158691406	80.10601043701172	636.2298583984375	40.73116302490234	108.9873580932617	593.248291015625	46.05257034301758	157.4174652099609	525.6007690429688	38.26734161376953	51.36289978027344	383.0821228027344	98.47265625	167.3488616943359	929.8634033203125	523.3153686523438	401.6139526367188	881.9066772460938	788.4296875	438.1711120605469	853.5618286132812	38.77714157104492	409.468017578125	949.8348999023438	399.9732360839844	384.6888122558594	1078.654174804688	37.99515151977539	371.3085021972656	1021.115844726562	39.68778991699219	327.3176574707031	965.0665893554688	33.17451095581055	444.7317810058594	801.7235107421875	40.61585998535156	343.1226196289062	
234	2.33	608.2220458984375	1047.472534179688	330.48388671875	597.6123046875	1051.78173828125	207.8811950683594	607.7382202148438	1087.337280273438	270.5770263671875	878.6377563476562	1280.668090820312	242.5274658203125	585.0799560546875	1245.625244140625	268.6204528808594	661.7305908203125	1512.0576171875	253.8201141357422	855.5072021484375	1395.390869140625	238.1286926269531	596.8106079101562	1338.143920898438	366.9696960449219	645.1005249023438	1489.6259765625	154.1310424804688	713.9398193359375	1474.838500976562	68.54347229003906	668.0411376953125	1344.03857421875	0.2968624532222748	672.355712890625	1127.081909179688	-21.53609275817871	640.7728271484375	1109.220825195312	58.84463500976562	804.3572998046875	905.2858276367188	-13.07547950744629	718.7196655273438	876.3650512695312	-38.42402267456055	690.3933715820312	1016.709594726562	-38.72336578369141	842.028564453125	722.149169921875	-0.8590630292892456	747.4361572265625	809.1119384765625	-39.5040168762207	818.6281127929688	828.5431518554688	-36.52405548095703	742.2822875976562	1481.6796875	428.830078125	727.0381469726562	1414.37841796875	498.8941040039062	722.5680541992188	1124.615478515625	555.3466796875	706.8744506835938	1116.26513671875	460.3827819824219	880.2092895507812	913.9382934570312	513.7734375	812.5567016601562	886.1209106445312	564.228515625	755.33447265625	1053.2109375	567.6024780273438	915.7913818359375	733.1527709960938	478.0712280273438	918.3795776367188	824.5623779296875	516.1873168945312	850.1185913085938	807.6901245117188	554.7891235351562	709.7647705078125	1642.880981445312	336.8159790039062	852.2518920898438	1739.307006835938	202.9163360595703	863.5444946289062	1724.182861328125	330.980712890625	686.9775390625	1664.979370117188	202.5536956787109	683.849365234375	980.8353271484375	78.9183349609375	775.3466796875	1000.753784179688	437.1795654296875	847.2413940429688	1021.276550292969	371.4356994628906	813.56884765625	1014.299499511719	114.6125106811523	681.96728515625	480.969970703125	92.51817321777344	694.84423828125	625.56591796875	72.74048614501953	424.1597595214844	72.32759857177734	97.60466003417969	557.7874145507812	280.0846252441406	81.66834259033203	635.7119750976562	40.84887313842773	108.890869140625	592.4829711914062	45.6558952331543	157.7784576416016	524.1216430664062	37.23331451416016	52.08598327636719	380.256103515625	92.53195190429688	169.45751953125	925.1250610351562	523.8790283203125	400.4620056152344	874.634033203125	788.345703125	436.3855285644531	853.7095947265625	38.89922332763672	409.3074035644531	946.2257690429688	400.9884338378906	383.8247985839844	1078.822875976562	37.88626098632812	371.3621826171875	1021.308837890625	39.67544937133789	327.3792419433594	965.2045288085938	33.20895767211914	444.6790466308594	802.0210571289062	40.73836898803711	342.9842224121094	
235	2.34	599.9998779296875	1046.943359375	327.598388671875	589.5697021484375	1051.608276367188	204.8612823486328	599.6824340820312	1086.923217773438	267.5752563476562	871.4515991210938	1279.485961914062	239.9843444824219	577.575927734375	1245.440063476562	265.0726013183594	655.150390625	1511.577880859375	250.1948852539062	848.7055053710938	1394.274658203125	235.3682403564453	589.188720703125	1337.994140625	363.3141479492188	638.8499145507812	1489.024780273438	150.3677978515625	707.9853515625	1473.882080078125	65.05966949462891	662.3923950195312	1342.94921875	-3.197613477706909	667.4413452148438	1125.847412109375	-24.96317672729492	635.3406982421875	1107.837890625	55.14579772949219	802.0134887695312	905.7605590820312	-15.27967739105225	716.8674926757812	875.5662231445312	-40.95238494873047	686.7369384765625	1015.534973144531	-41.81147766113281	842.408447265625	723.3638916015625	-2.94105052947998	746.5620727539062	808.7647705078125	-41.88273239135742	817.45703125	829.3422241210938	-38.69755935668945	734.9276123046875	1480.988403320312	425.5643615722656	719.305908203125	1413.64453125	495.5376892089844	714.58447265625	1123.918090820312	552.1615600585938	699.425537109375	1115.417846679688	457.1083068847656	872.7901611328125	913.4222412109375	512.3292236328125	804.5523071289062	885.4591064453125	561.8924560546875	747.2838134765625	1052.569458007812	564.7354125976562	909.0737915039062	732.7420654296875	476.9030456542969	911.0382080078125	824.098388671875	515.17041015625	842.258056640625	807.0723266601562	552.81591796875	702.8473510742188	1641.609497070312	333.5528259277344	845.8593139648438	1738.75	200.7197265625	856.5157470703125	1723.2451171875	328.8091735839844	680.7178955078125	1664.14501953125	199.2833557128906	676.171142578125	980.353515625	76.30261993408203	766.8704833984375	1000.032104492188	434.9338684082031	838.83642578125	1020.409301757812	369.2808532714844	806.0742797851562	1013.296936035156	112.3178939819336	672.5173950195312	480.7439880371094	93.03293609619141	685.3602905273438	625.2268676757812	72.15927124023438	422.164306640625	68.41074371337891	99.38677215576172	552.0206298828125	277.8155212402344	83.09314727783203	635.2697143554688	40.92195129394531	108.7681198120117	591.8550415039062	45.19536972045898	158.1226959228516	522.7982177734375	36.40903472900391	52.73617172241211	377.97119140625	87.04029083251953	171.5462188720703	919.6776733398438	524.5328369140625	399.3545837402344	866.933837890625	788.3345336914062	434.5807800292969	853.9066162109375	39.00556945800781	409.1365966796875	942.0445556640625	402.147216796875	383.0728759765625	1079.01123046875	37.75205993652344	371.4517211914062	1021.566467285156	39.67107772827148	327.46826171875	965.381103515625	33.22320175170898	444.6239929199219	802.3919067382812	40.89142227172852	342.7953796386719	
236	2.35	591.5435791015625	1046.619262695312	324.6915588378906	581.3306884765625	1051.562866210938	201.8750762939453	591.4071044921875	1086.72412109375	264.5648193359375	864.1288452148438	1278.418212890625	237.4485626220703	569.9226684570312	1245.522583007812	261.4696960449219	648.5738525390625	1511.300170898438	246.5169219970703	841.8399658203125	1393.2939453125	232.6052093505859	581.466552734375	1338.1162109375	359.6114196777344	632.61669921875	1488.651611328125	146.5505981445312	702.0712890625	1473.120971679688	61.55398178100586	656.7877807617188	1342.088500976562	-6.752485752105713	662.4967041015625	1124.842407226562	-28.41339111328125	629.8219604492188	1106.697143554688	51.40427398681641	799.43701171875	906.3975219726562	-17.42083168029785	714.8073120117188	874.9970703125	-43.43877029418945	682.9777221679688	1014.585388183594	-44.89009857177734	842.4384155273438	724.7559814453125	-4.896608829498291	745.4249877929688	808.6354370117188	-44.19365310668945	816.0191650390625	830.3079223632812	-40.7818717956543	727.5352172851562	1480.495361328125	422.2600402832031	711.5167236328125	1413.116577148438	492.1497497558594	706.459228515625	1123.419555664062	548.8917846679688	691.8695678710938	1114.771850585938	453.75146484375	865.1296997070312	913.0288696289062	510.8572387695312	796.3104248046875	884.9713134765625	559.5379028320312	739.0634765625	1052.11962890625	561.8027954101562	902.0392456054688	732.4229736328125	475.8047180175781	903.4242553710938	823.7481689453125	514.1682739257812	834.119140625	806.6107177734375	550.8616943359375	695.9134521484375	1640.51904296875	330.2298583984375	839.4949951171875	1738.315795898438	198.4831695556641	849.4889526367188	1722.435180664062	326.5921630859375	674.4757080078125	1663.46728515625	195.9589385986328	668.2696533203125	980.1229858398438	73.67195129394531	758.1146240234375	999.4556274414062	432.6915588378906	830.15087890625	1019.716735839844	367.1528015136719	798.3269653320312	1012.552429199219	110.0201797485352	663.5595703125	480.6842346191406	93.33169555664062	676.2261962890625	625.0584106445312	71.44438934326172	420.5147399902344	64.88307189941406	101.0372543334961	546.6774291992188	275.8338928222656	84.29999542236328	634.88037109375	40.9626350402832	108.6235427856445	591.3385620117188	44.70521545410156	158.4339141845703	521.6209716796875	35.73484802246094	53.2800178527832	376.1648254394531	82.02554321289062	173.5014495849609	913.5183715820312	525.2899780273438	398.3233032226562	858.7896728515625	788.4103393554688	432.774658203125	854.157470703125	39.09372711181641	408.953125	937.2907104492188	403.4597778320312	382.4835510253906	1079.21630859375	37.60368347167969	371.5838012695312	1021.894287109375	39.68520355224609	327.5906066894531	965.6065063476562	33.21250915527344	444.5629272460938	802.8421020507812	41.09351348876953	342.5518493652344	
